<?xml version="1.0" encoding="UTF-8"?>
<!DOCTYPE svg PUBLIC "-//W3C//DTD SVG 1.1//EN" "http://www.w3.org/Graphics/SVG/1.1/DTD/svg11.dtd">
<svg xmlns="http://www.w3.org/2000/svg" version="1.1" width="500px" height="111px" style="shape-rendering:geometricPrecision; text-rendering:geometricPrecision; image-rendering:optimizeQuality; fill-rule:evenodd; clip-rule:evenodd" xmlns:xlink="http://www.w3.org/1999/xlink">
<g><path style="opacity:1" fill="#e8e8e8" d="M 126.5,77.5 C 128.411,76.925 130.078,75.925 131.5,74.5C 133.06,76.9535 134.06,79.6202 134.5,82.5C 134.783,83.2891 135.283,83.9558 136,84.5C 136.498,81.5184 136.665,78.5184 136.5,75.5C 137.082,68.4208 139.082,61.7541 142.5,55.5C 142.167,55.1667 141.833,54.8333 141.5,54.5C 134.041,58.698 126.041,60.698 117.5,60.5C 116.127,60.3433 114.793,60.51 113.5,61C 114.044,61.7172 114.711,62.2172 115.5,62.5C 117.216,62.6287 118.883,62.962 120.5,63.5C 121.058,64.7899 122.058,65.6232 123.5,66C 114.685,74.4851 105.018,81.8184 94.5,88C 92.6476,88.7726 91.3143,88.2726 90.5,86.5C 89.5994,84.2729 87.9328,83.2729 85.5,83.5C 85.7409,80.9664 84.7409,79.2998 82.5,78.5C 73.7373,64.1935 73.2373,49.5268 81,34.5C 91.1967,20.0476 105.03,14.0476 122.5,16.5C 122.5,17.1667 122.5,17.8333 122.5,18.5C 114.901,24.0918 107.567,30.0918 100.5,36.5C 99.8333,36.1667 99.1667,35.8333 98.5,35.5C 98.1667,35.5 97.8333,35.5 97.5,35.5C 96.9695,33.0763 96.1362,30.743 95,28.5C 94.5223,38.0791 92.0223,47.0791 87.5,55.5C 87.8333,55.8333 88.1667,56.1667 88.5,56.5C 96.052,52.6482 104.052,50.6482 112.5,50.5C 117.356,50.8625 118.022,50.1958 114.5,48.5C 111.738,47.6205 109.071,46.4538 106.5,45C 115.552,35.9421 125.719,28.4421 137,22.5C 138.303,22.9783 139.469,23.645 140.5,24.5C 140.56,25.0431 140.893,25.3764 141.5,25.5C 142.386,24.675 142.719,23.675 142.5,22.5C 142.906,20.8908 142.906,19.5575 142.5,18.5C 139.048,19.7257 135.715,21.2257 132.5,23C 122.721,29.6162 113.387,36.7829 104.5,44.5C 103.243,45.6226 103.576,46.2893 105.5,46.5C 106.492,46.3284 107.158,46.6618 107.5,47.5C 106.167,48.1667 104.833,48.8333 103.5,49.5C 100.183,50.4967 96.8497,51.4967 93.5,52.5C 92.5084,52.6716 91.8417,52.3382 91.5,51.5C 93.24,46.6126 94.5733,41.6126 95.5,36.5C 96.1667,36.8333 96.8333,37.1667 97.5,37.5C 97.8333,37.5 98.1667,37.5 98.5,37.5C 98.3505,38.552 98.5172,39.552 99,40.5C 109.36,30.1346 120.86,21.3013 133.5,14C 150.045,9.39451 154.378,14.8945 146.5,30.5C 160.257,51.5625 157.924,70.7291 139.5,88C 128.782,95.4012 117.115,97.4012 104.5,94C 112.042,88.7343 119.375,83.2343 126.5,77.5 Z M 142.5,22.5 C 141.833,23.1667 141.167,23.8333 140.5,24.5C 139.469,23.645 138.303,22.9783 137,22.5C 125.719,28.4421 115.552,35.9421 106.5,45C 109.071,46.4538 111.738,47.6205 114.5,48.5C 113.833,49.1667 113.167,49.8333 112.5,50.5C 104.052,50.6482 96.052,52.6482 88.5,56.5C 88.1667,56.1667 87.8333,55.8333 87.5,55.5C 92.0223,47.0791 94.5223,38.0791 95,28.5C 96.1362,30.743 96.9695,33.0763 97.5,35.5C 96.0755,33.9689 95.4088,34.3023 95.5,36.5C 94.5733,41.6126 93.24,46.6126 91.5,51.5C 90.1153,52.3023 90.282,52.9689 92,53.5C 92.7648,53.4301 93.2648,53.0967 93.5,52.5C 96.8497,51.4967 100.183,50.4967 103.5,49.5C 105.75,49.8186 107.75,49.3186 109.5,48C 108.906,47.5357 108.239,47.369 107.5,47.5C 107.158,46.6618 106.492,46.3284 105.5,46.5C 105.167,45.8333 104.833,45.1667 104.5,44.5C 113.387,36.7829 122.721,29.6162 132.5,23C 135.715,21.2257 139.048,19.7257 142.5,18.5C 142.906,19.5575 142.906,20.8908 142.5,22.5 Z"/></g>
<g><path style="opacity:0.004" fill="#2a2a2a" d="M 122.5,16.5 C 125.167,17.1667 125.167,17.8333 122.5,18.5C 122.5,17.8333 122.5,17.1667 122.5,16.5 Z"/></g>
<g><path style="opacity:0.933" fill="#6e6e6e" d="M 142.5,22.5 C 142.719,23.675 142.386,24.675 141.5,25.5C 140.893,25.3764 140.56,25.0431 140.5,24.5C 141.167,23.8333 141.833,23.1667 142.5,22.5 Z"/></g>
<g><path style="opacity:1" fill="#eaeaea" d="M 213.5,23.5 C 216.044,23.1043 218.211,23.771 220,25.5C 220.333,44.5 220.667,63.5 221,82.5C 222.779,85.4447 221.779,87.1114 218,87.5C 216.289,87.5607 214.956,86.8941 214,85.5C 213.667,66.5 213.333,47.5 213,28.5C 211.198,26.7271 211.365,25.0605 213.5,23.5 Z"/></g>
<g><path style="opacity:0.999" fill="#e6e6e6" d="M 367.5,35.5 C 367.5,38.8333 367.5,42.1667 367.5,45.5C 372.619,44.8969 377.285,45.5636 381.5,47.5C 379.562,49.1628 377.228,49.8294 374.5,49.5C 372.167,49.5 369.833,49.5 367.5,49.5C 367.173,59.3478 367.506,69.0144 368.5,78.5C 369.519,80.1015 371.019,81.1015 373,81.5C 376.752,80.6241 380.085,78.9574 383,76.5C 385.241,80.119 384.408,82.9523 380.5,85C 375.317,87.8148 369.984,88.1482 364.5,86C 362.84,84.5123 361.84,82.679 361.5,80.5C 361.5,70.1667 361.5,59.8333 361.5,49.5C 360.5,49.5 359.5,49.5 358.5,49.5C 353.742,49.117 352.742,47.117 355.5,43.5C 357.071,44.3094 358.738,44.6427 360.5,44.5C 360.5,41.8333 360.5,39.1667 360.5,36.5C 360.433,35.0413 360.766,33.7079 361.5,32.5C 362.251,31.4265 363.251,31.2599 364.5,32C 366.426,32.4224 367.426,33.5891 367.5,35.5 Z"/></g>
<g><path style="opacity:0.918" fill="#6f6f6f" d="M 361.5,32.5 C 360.766,33.7079 360.433,35.0413 360.5,36.5C 357.782,34.5774 358.116,33.244 361.5,32.5 Z"/></g>
<g><path style="opacity:0.396" fill="#212121" d="M 97.5,35.5 C 97.5,36.1667 97.5,36.8333 97.5,37.5C 96.8333,37.1667 96.1667,36.8333 95.5,36.5C 95.4088,34.3023 96.0755,33.9689 97.5,35.5 Z"/></g>
<g><path style="opacity:0.208" fill="#262626" d="M 98.5,35.5 C 99.1667,35.8333 99.8333,36.1667 100.5,36.5C 100.158,37.3382 99.4916,37.6716 98.5,37.5C 98.5,36.8333 98.5,36.1667 98.5,35.5 Z"/></g>
<g><path style="opacity:1" fill="#cccccc" d="M 185.5,43.5 C 197.95,43.1163 203.783,49.1163 203,61.5C 201.786,63.0488 200.286,64.2155 198.5,65C 191.507,65.6661 184.507,66.1661 177.5,66.5C 177.211,75.5426 181.544,80.5426 190.5,81.5C 194.447,80.9302 198.113,79.5969 201.5,77.5C 202.287,78.2421 202.953,79.0754 203.5,80C 198.893,86.6506 192.559,88.9839 184.5,87C 174.372,84.0241 169.372,77.1908 169.5,66.5C 170.184,55.4269 175.517,47.7602 185.5,43.5 Z M 184.5,49.5 C 192.794,48.0363 196.294,51.3696 195,59.5C 189.296,61.1533 183.463,61.6533 177.5,61C 178.448,56.2613 180.781,52.428 184.5,49.5 Z"/></g>
<g><path style="opacity:1" fill="#cccccc" d="M 247.5,43.5 C 259.95,43.1163 265.783,49.1163 265,61.5C 263.786,63.0488 262.286,64.2155 260.5,65C 253.507,65.6661 246.507,66.1661 239.5,66.5C 239.211,75.5426 243.544,80.5426 252.5,81.5C 256.447,80.9302 260.113,79.5969 263.5,77.5C 264.5,77.8333 265.167,78.5 265.5,79.5C 262.567,85.0819 257.9,87.7486 251.5,87.5C 238.703,86.3689 232.036,79.3689 231.5,66.5C 232.184,55.4269 237.517,47.7602 247.5,43.5 Z M 246.5,49.5 C 254.773,47.9406 258.273,51.274 257,59.5C 251.296,61.1533 245.463,61.6533 239.5,61C 240.525,58.9285 241.358,56.7619 242,54.5C 243.707,52.9625 245.207,51.2959 246.5,49.5 Z"/></g>
<g><path style="opacity:1" fill="#cecece" d="M 288.5,79.5 C 289.167,82.1667 289.833,82.1667 290.5,79.5C 293.697,69.7423 297.197,60.0757 301,50.5C 301.651,48.765 301.485,47.0983 300.5,45.5C 306.804,42.2878 309.304,44.2878 308,51.5C 303.357,63.0984 298.524,74.5984 293.5,86C 288.696,88.7068 285.196,87.5402 283,82.5C 279.492,70.799 275.326,59.4656 270.5,48.5C 270.167,47.8333 269.833,47.1667 269.5,46.5C 272.54,42.5266 275.706,42.5266 279,46.5C 282.683,57.3778 285.849,68.3778 288.5,79.5 Z"/></g>
<g><path style="opacity:0.999" fill="#cbcbcb" d="M 339.5,83.5 C 339.655,80.1469 338.988,79.8136 337.5,82.5C 330.717,88.7375 323.551,89.0708 316,83.5C 312.297,73.7376 315.464,67.2376 325.5,64C 329.77,62.9246 334.103,62.4246 338.5,62.5C 338.665,59.4816 338.498,56.4816 338,53.5C 337.727,51.6711 336.893,50.1711 335.5,49C 332.036,48.1834 328.702,48.5167 325.5,50C 324.167,52 324.167,54 325.5,56C 321.022,59.2881 317.689,58.2881 315.5,53C 317.366,47.801 321.032,44.801 326.5,44C 336.499,41.5232 342.999,45.0232 346,54.5C 346.168,63.8511 346.668,73.1845 347.5,82.5C 348.5,83 349.5,83.5 350.5,84C 346.406,88.7323 342.739,88.5656 339.5,83.5 Z M 336.5,66.5 C 340.338,73.0385 338.671,77.8718 331.5,81C 324.017,82.689 321.183,79.8556 323,72.5C 326.939,69.0284 331.439,67.0284 336.5,66.5 Z"/></g>
<g><path style="opacity:0.789" fill="#696969" d="M 367.5,35.5 C 368.477,38.2869 368.81,41.2869 368.5,44.5C 373.167,44.5 377.833,44.5 382.5,44.5C 382.737,45.791 382.404,46.791 381.5,47.5C 377.285,45.5636 372.619,44.8969 367.5,45.5C 367.5,42.1667 367.5,38.8333 367.5,35.5 Z"/></g>
<g><path style="opacity:0.999" fill="#cdcdcd" d="M 405.5,43.5 C 412.48,42.4352 417.98,44.7685 422,50.5C 423.405,54.0721 423.738,57.7387 423,61.5C 421.992,63.259 420.492,64.4257 418.5,65C 411.5,65.5769 404.5,66.0769 397.5,66.5C 397.431,75.7341 401.931,80.7341 411,81.5C 414.76,80.8578 418.26,79.5244 421.5,77.5C 422.5,77.8333 423.167,78.5 423.5,79.5C 420.676,85.249 416.009,87.9156 409.5,87.5C 396.944,86.4439 390.278,79.6106 389.5,67C 390.024,55.6806 395.358,47.8472 405.5,43.5 Z M 405.5,61.5 C 403.167,61.5 400.833,61.5 398.5,61.5C 398.5,60.5 398.5,59.5 398.5,58.5C 400.575,51.2394 405.241,48.4061 412.5,50C 415.194,52.6534 416.027,55.8201 415,59.5C 411.883,60.3038 408.716,60.9705 405.5,61.5 Z"/></g>
<g><path style="opacity:0.518" fill="#363636" d="M 104.5,44.5 C 104.833,45.1667 105.167,45.8333 105.5,46.5C 103.576,46.2893 103.243,45.6226 104.5,44.5 Z"/></g>
<g><path style="opacity:0.027" fill="#0a0a0a" d="M 269.5,46.5 C 269.833,47.1667 270.167,47.8333 270.5,48.5C 268.576,48.2893 268.243,47.6226 269.5,46.5 Z"/></g>
<g><path style="opacity:0.161" fill="#212121" d="M 107.5,47.5 C 108.239,47.369 108.906,47.5357 109.5,48C 107.75,49.3186 105.75,49.8186 103.5,49.5C 104.833,48.8333 106.167,48.1667 107.5,47.5 Z"/></g>
<g><path style="opacity:0.161" fill="#171717" d="M 114.5,48.5 C 118.022,50.1958 117.356,50.8625 112.5,50.5C 113.167,49.8333 113.833,49.1667 114.5,48.5 Z"/></g>
<g><path style="opacity:0.591" fill="#525252" d="M 358.5,49.5 C 359.5,49.5 360.5,49.5 361.5,49.5C 361.5,59.8333 361.5,70.1667 361.5,80.5C 361.118,70.0899 360.118,59.7565 358.5,49.5 Z"/></g>
<g><path style="opacity:0.26" fill="#161616" d="M 374.5,49.5 C 372.735,50.4614 370.735,50.7947 368.5,50.5C 368.5,59.8333 368.5,69.1667 368.5,78.5C 367.506,69.0144 367.173,59.3478 367.5,49.5C 369.833,49.5 372.167,49.5 374.5,49.5 Z"/></g>
<g><path style="opacity:0.6" fill="#343434" d="M 91.5,51.5 C 91.8417,52.3382 92.5084,52.6716 93.5,52.5C 93.2648,53.0967 92.7648,53.4301 92,53.5C 90.282,52.9689 90.1153,52.3023 91.5,51.5 Z"/></g>
<g><path style="opacity:0.012" fill="#000000" d="M 139.5,56.5 C 140.833,57.1667 140.833,57.1667 139.5,56.5 Z"/></g>
<g><path style="opacity:1" fill="#d1d1d1" d="M 139.5,57.5 C 137.368,63.7322 135.534,70.0655 134,76.5C 133.209,75.255 132.709,73.9217 132.5,72.5C 132.289,70.5759 131.623,70.2426 130.5,71.5C 119.286,83.115 106.286,92.2816 91.5,99C 83.3809,100.875 79.5476,97.7078 80,89.5C 80.8725,86.3819 82.0392,83.3819 83.5,80.5C 83.1373,79.8165 82.8039,79.1499 82.5,78.5C 84.7409,79.2998 85.7409,80.9664 85.5,83.5C 87.9328,83.2729 89.5994,84.2729 90.5,86.5C 87.872,87.6248 87.0387,89.6248 88,92.5C 102.534,86.3172 115.034,77.3172 125.5,65.5C 124.643,64.5748 123.643,63.9081 122.5,63.5C 123.5,62.8333 124.5,62.1667 125.5,61.5C 130.225,60.3694 134.892,59.036 139.5,57.5 Z"/></g>
<g><path style="opacity:0.055" fill="#0a0a0a" d="M 117.5,60.5 C 116.833,61.1667 116.167,61.8333 115.5,62.5C 114.711,62.2172 114.044,61.7172 113.5,61C 114.793,60.51 116.127,60.3433 117.5,60.5 Z"/></g>
<g><path style="opacity:0.096" fill="#1b1b1b" d="M 125.5,61.5 C 124.5,62.1667 123.5,62.8333 122.5,63.5C 121.833,63.5 121.167,63.5 120.5,63.5C 121.635,61.7868 123.302,61.1201 125.5,61.5 Z"/></g>
<g><path style="opacity:0.831" fill="#606060" d="M 398.5,58.5 C 398.5,59.5 398.5,60.5 398.5,61.5C 400.833,61.5 403.167,61.5 405.5,61.5C 403.052,62.4731 400.385,62.8064 397.5,62.5C 397.232,60.901 397.566,59.5676 398.5,58.5 Z"/></g>
<g><path style="opacity:0.576" fill="#2c2c2c" d="M 130.5,71.5 C 131.623,70.2426 132.289,70.5759 132.5,72.5C 131.833,72.1667 131.167,71.8333 130.5,71.5 Z"/></g>
<g><path style="opacity:0.973" fill="#898989" d="M 131.5,74.5 C 130.078,75.925 128.411,76.925 126.5,77.5C 127.648,74.9131 129.315,73.9131 131.5,74.5 Z"/></g>
<g><path style="opacity:0.553" fill="#383838" d="M 288.5,79.5 C 289.167,79.5 289.833,79.5 290.5,79.5C 289.833,82.1667 289.167,82.1667 288.5,79.5 Z"/></g>
<g><path style="opacity:0.322" fill="#1f1f1f" d="M 339.5,83.5 C 338.833,83.1667 338.167,82.8333 337.5,82.5C 338.988,79.8136 339.655,80.1469 339.5,83.5 Z"/></g>
<g><path style="opacity:0.639" fill="#4b4b4b" d="M 136.5,75.5 C 136.665,78.5184 136.498,81.5184 136,84.5C 135.283,83.9558 134.783,83.2891 134.5,82.5C 135.167,80.1667 135.833,77.8333 136.5,75.5 Z"/></g>
</svg>
